<svg width="128" height="128" viewBox="0 0 128 128" fill="none" xmlns="http://www.w3.org/2000/svg">
<g clip-path="url(#clip0_2286_947)">
<path d="M64.0039 25.6016C46.9369 25.6016 36.2739 34.1316 32.0039 51.1986C38.4019 42.6676 45.8709 39.4686 54.4019 41.6016C59.2729 42.8156 62.7539 46.3476 66.6089 50.2616C72.8829 56.6286 80.1449 63.9996 96.0039 63.9996C113.07 63.9996 123.734 55.4686 128.004 38.3976C121.604 46.9329 114.138 50.1336 105.605 47.9996C100.735 46.7846 97.2579 43.2536 93.3979 39.3396C87.1279 32.9726 79.8679 25.6016 64.0039 25.6016ZM32.0039 63.9996C14.9379 63.9996 4.27391 72.5306 0.00390625 89.6016C6.40324 81.0662 13.8692 77.8656 22.4019 79.9996C27.2729 81.2146 30.7539 84.7456 34.6089 88.6596C40.8829 95.0266 48.1449 102.398 64.0039 102.398C81.0699 102.398 91.7339 93.8676 96.0039 76.8006C89.6039 85.3319 82.1376 88.5309 73.6049 86.3976C68.7349 85.1836 65.2579 81.6516 61.3979 77.7376C55.1279 71.3706 47.8679 63.9996 32.0039 63.9996Z" fill="#AE9670"/>
</g>
<defs>
<clipPath id="clip0_2286_947">
<rect width="128" height="128" fill="white"/>
</clipPath>
</defs>
</svg>
