<svg width="84" height="47" viewBox="0 0 84 47" fill="none" xmlns="http://www.w3.org/2000/svg">
<path d="M0.8 36V0.999998H5.6V16.05H24.05V0.999998H28.85V36H24.05V20.3H5.6V36H0.8ZM75.527 47C73.8603 47 72.377 46.6667 71.077 46C69.8103 45.3667 68.8103 44.4167 68.077 43.15C67.3436 41.8833 66.977 40.3667 66.977 38.6C66.977 38.1667 66.9936 37.7167 67.027 37.25C67.0603 36.8167 67.1103 36.3667 67.177 35.9C64.4436 36.0667 61.9103 35.75 59.577 34.95C57.2436 34.15 55.2103 32.9667 53.477 31.4C51.7436 29.8 50.3936 27.8833 49.427 25.65C48.4603 23.3833 47.977 20.9 47.977 18.2C47.977 15.7333 48.3936 13.4333 49.227 11.3C50.0603 9.13333 51.2603 7.23333 52.827 5.6C54.3936 3.96667 56.277 2.7 58.477 1.8C60.7103 0.866666 63.177 0.399999 65.877 0.399999C68.577 0.399999 71.027 0.849999 73.227 1.75C75.427 2.65 77.3103 3.91666 78.877 5.55C80.4436 7.15 81.6436 9 82.477 11.1C83.3436 13.2 83.777 15.4667 83.777 17.9V38.05C83.777 39.85 83.4436 41.4167 82.777 42.75C82.1103 44.1167 81.1603 45.1667 79.927 45.9C78.727 46.6333 77.2603 47 75.527 47ZM75.227 42.7C76.327 42.7 77.227 42.3 77.927 41.5C78.627 40.7333 78.977 39.6167 78.977 38.15V26.25C77.277 27.35 75.927 28.4667 74.927 29.6C73.927 30.7333 73.177 31.8333 72.677 32.9C72.2103 33.9667 71.8936 34.95 71.727 35.85C71.5936 36.75 71.527 37.5 71.527 38.1C71.527 39.0667 71.6936 39.8833 72.027 40.55C72.3936 41.25 72.8603 41.7833 73.427 42.15C73.9936 42.5167 74.5936 42.7 75.227 42.7ZM65.877 31.8C66.4103 31.8 66.9103 31.7833 67.377 31.75C67.8436 31.6833 68.3436 31.5833 68.877 31.45C69.3436 30.3167 69.9936 29.1667 70.827 28C71.6936 26.8333 72.777 25.6833 74.077 24.55C75.4103 23.3833 77.0436 22.3 78.977 21.3V17.9C78.977 16 78.6436 14.25 77.977 12.65C77.3436 11.0167 76.427 9.61667 75.227 8.45C74.0603 7.25 72.677 6.31667 71.077 5.65C69.477 4.95 67.7436 4.6 65.877 4.6C63.977 4.6 62.227 4.95 60.627 5.65C59.0603 6.31667 57.677 7.26667 56.477 8.5C55.3103 9.73333 54.3936 11.1833 53.727 12.85C53.0936 14.4833 52.777 16.2667 52.777 18.2C52.777 20.1333 53.0936 21.9333 53.727 23.6C54.3936 25.2333 55.3103 26.6667 56.477 27.9C57.677 29.1333 59.0603 30.1 60.627 30.8C62.227 31.4667 63.977 31.8 65.877 31.8Z" fill="#AE9670"/>
</svg>
