<svg width="32" height="32" viewBox="0 0 32 32" fill="none" xmlns="http://www.w3.org/2000/svg">
<path d="M18.7739 19.7C19.0841 20.3289 19.5655 20.8575 20.1627 21.2251C20.7599 21.5927 21.4487 21.7843 22.1499 21.778C23.5679 21.778 24.4739 21.069 24.4739 20.09C24.4739 18.917 23.5429 18.501 21.9829 17.818L21.1269 17.451C18.6579 16.399 17.0169 15.081 17.0169 12.295C17.0169 9.72798 18.9729 7.77498 22.0289 7.77498C23.0208 7.70301 24.0118 7.92502 24.8782 8.41325C25.7445 8.90148 26.4477 9.63426 26.8999 10.52L24.2349 12.231C24.0604 11.7921 23.7565 11.4167 23.3635 11.1546C22.9706 10.8926 22.5072 10.7563 22.0349 10.764C21.8291 10.7433 21.6212 10.7657 21.4244 10.8298C21.2277 10.8939 21.0466 10.9983 20.8924 11.1363C20.7383 11.2743 20.6147 11.443 20.5293 11.6314C20.444 11.8199 20.3989 12.0241 20.3969 12.231C20.3969 13.258 21.0329 13.673 22.4969 14.309L23.3529 14.675C26.2609 15.922 27.9019 17.193 27.9019 20.051C27.9019 23.132 25.4819 24.82 22.2309 24.82C20.9646 24.9005 19.702 24.6129 18.5955 23.9919C17.489 23.3709 16.5858 22.4429 15.9949 21.32L18.7739 19.7ZM6.6859 20C7.2239 20.954 7.7129 21.76 8.8859 21.76C10.0099 21.76 10.7199 21.32 10.7199 19.61V7.97498H14.1419V19.658C14.1419 23.201 12.0639 24.814 9.0319 24.814C7.96089 24.872 6.89742 24.6044 5.9814 24.0464C5.06538 23.4884 4.33972 22.6662 3.8999 21.688L6.6859 20Z" fill="#AE9670"/>
</svg>
